<svg width="498.29503173828124px" height="122.021240234375px" xmlns="http://www.w3.org/2000/svg" viewBox="0.8524841308593807 13.9893798828125 498.29503173828124 122.021240234375" style="background: rgba(0, 0, 0, 0);" preserveAspectRatio="xMidYMid"><defs><filter id="editing-offset"><feFlood flood-color="#f00" flood-opacity="0.5" result="c1"></feFlood><feFlood flood-color="#0f0" flood-opacity="0.5" result="c2"></feFlood><feFlood flood-color="#00f" flood-opacity="0.5" result="c3"></feFlood><feComposite operator="in" in="c1" in2="SourceAlpha" result="text-c1"></feComposite><feComposite operator="in" in="c2" in2="SourceAlpha" result="text-c2"></feComposite><feComposite operator="in" in="c3" in2="SourceAlpha" result="text-c3"></feComposite><feOffset in="text-c1" dx="-10" dy="0" result="text1"></feOffset><feOffset in="text-c2" dx="10" dy="0" result="text2"></feOffset><feOffset in="text-c3" dx="0" dy="0" result="text3"></feOffset><feMerge><feMergeNode in="text1"></feMergeNode><feMergeNode in="text2"></feMergeNode><feMergeNode in="text3"></feMergeNode></feMerge></filter></defs><g filter="url(#editing-offset)"><g transform="translate(75.09000611305237, 100.2421875)"><path d="M14.14 0L0.51 0L7.81-38.91L8.51-42.24L22.21-42.24L14.14 0ZM40.13-3.78L40.13-3.78L40.13-3.78Q38.40 1.28 31.74 1.28L31.74 1.28L31.74 1.28Q26.82 1.28 23.42-4.61L23.42-4.61L23.42-4.61Q19.97-10.50 19.33-20.10L19.33-20.10L19.33-20.10Q26.37-32.96 31.23-38.27L31.23-38.27L31.23-38.27Q35.90-43.33 40.77-43.33L40.77-43.33L40.77-43.33Q43.39-43.33 45.28-41.92L45.28-41.92L45.28-41.92Q47.17-40.51 47.62-38.27L47.62-38.27L47.62-38.27Q45.44-37.38 44.42-36.67L44.42-36.67L44.42-36.67Q41.86-34.75 38.40-30.46L38.40-30.46L32.58-23.49L32.58-23.49Q31.17-21.82 30.59-21.06L30.59-21.06L30.59-21.06Q31.55-15.68 34.43-10.37L34.43-10.37L34.43-10.37Q37.18-5.31 40.13-3.78ZM46.56-1.92L46.56-1.92L46.56-1.92Q45.06-3.58 44.38-6.21L44.38-6.21L44.38-6.21Q43.71-8.83 43.71-13.12L43.71-13.12L43.71-13.12Q43.71-17.41 45.18-21.31L45.18-21.31L45.18-21.31Q46.66-25.22 49.34-28.03L49.34-28.03L49.34-28.03Q54.85-33.92 63.94-33.92L63.94-33.92L63.94-33.92Q67.20-33.92 69.57-32.83L69.57-32.83L80.51-33.92L75.78-8.96L75.78-8.96Q75.58-8.19 75.58-6.78L75.58-6.78L75.58-6.78Q75.58-5.38 76.45-4.48L76.45-4.48L76.45-4.48Q77.31-3.58 78.59-3.46L78.59-3.46L78.59-3.46Q77.95-1.28 75.62 0L75.62 0L75.62 0Q73.28 1.28 70.66 1.28L70.66 1.28L70.66 1.28Q68.03 1.28 66.27 0.29L66.27 0.29L66.27 0.29Q64.51-0.70 64-2.37L64-2.37L64-2.37Q62.98-0.77 60.80 0.26L60.80 0.26L60.80 0.26Q58.62 1.28 55.71 1.28L55.71 1.28L55.71 1.28Q52.80 1.28 50.43 0.51L50.43 0.51L50.43 0.51Q48.06-0.26 46.56-1.92ZM60.06-27.90L60.06-27.90L60.06-27.90Q59.33-26.75 58.69-24.80L58.69-24.80L58.69-24.80Q58.05-22.85 56.99-17.63L56.99-17.63L56.99-17.63Q55.94-12.42 55.94-8.70L55.94-8.70L55.94-8.70Q55.94-4.99 56.51-3.90L56.51-3.90L56.51-3.90Q57.09-2.82 58.11-2.82L58.11-2.82L58.11-2.82Q60.16-2.82 61.66-4.77L61.66-4.77L61.66-4.77Q63.17-6.72 63.74-10.18L63.74-10.18L67.14-28.93L67.14-28.93Q65.79-30.08 64.22-30.08L64.22-30.08L64.22-30.08Q62.66-30.08 61.73-29.57L61.73-29.57L61.73-29.57Q60.80-29.06 60.06-27.90ZM104-17.98L104-17.98L104-17.98Q106.30-22.08 106.30-26.24L106.30-26.24L106.30-26.24Q106.30-28.99 104.32-28.99L104.32-28.99L104.32-28.99Q102.78-28.99 101.18-26.37L101.18-26.37L101.18-26.37Q99.52-23.74 99.01-20.35L99.01-20.35L95.68 0L82.43 1.28L88.96-32.64L99.52-33.92L98.37-27.46L98.37-27.46Q101.50-33.92 108.54-33.92L108.54-33.92L108.54-33.92Q112.26-33.92 114.27-32L114.27-32L114.27-32Q116.29-30.08 116.29-26.14L116.29-26.14L116.29-26.14Q116.29-22.21 113.70-19.71L113.70-19.71L113.70-19.71Q111.10-17.22 106.69-17.22L106.69-17.22L106.69-17.22Q104.77-17.22 104-17.98ZM131.26 1.28L131.26 1.28L131.26 1.28Q117.18 1.28 117.18-11.97L117.18-11.97L117.18-11.97Q117.18-21.38 122.37-27.46L122.37-27.46L122.37-27.46Q127.87-33.92 137.41-33.92L137.41-33.92L137.41-33.92Q144.32-33.92 147.84-30.72L147.84-30.72L147.84-30.72Q151.36-27.52 151.36-20.80L151.36-20.80L151.36-20.80Q151.36-10.56 145.86-4.61L145.86-4.61L145.86-4.61Q140.48 1.28 131.26 1.28ZM132.93-26.56L132.93-26.56L132.93-26.56Q132.16-24.83 131.55-22.24L131.55-22.24L131.55-22.24Q130.94-19.65 130.18-15.55L130.18-15.55L130.18-15.55Q129.41-11.46 129.41-6.40L129.41-6.40L129.41-6.40Q129.41-4.74 129.95-3.65L129.95-3.65L129.95-3.65Q130.50-2.56 131.97-2.56L131.97-2.56L131.97-2.56Q133.44-2.56 134.37-3.26L134.37-3.26L134.37-3.26Q135.30-3.97 136-5.63L136-5.63L136-5.63Q137.28-8.58 138.30-14.05L138.30-14.05L138.30-14.05Q139.33-19.52 139.42-21.89L139.42-21.89L139.42-21.89Q139.52-24.26 139.52-26.02L139.52-26.02L139.52-26.02Q139.52-27.78 139.01-28.93L139.01-28.93L139.01-28.93Q138.50-30.08 137.06-30.08L137.06-30.08L137.06-30.08Q135.62-30.08 134.66-29.18L134.66-29.18L134.66-29.18Q133.70-28.29 132.93-26.56ZM201.73-13.25L201.73-13.25L201.73-13.25Q203.39-12.03 203.39-9.44L203.39-9.44L203.39-9.44Q203.39-6.85 202.27-5.02L202.27-5.02L202.27-5.02Q201.15-3.20 198.98-1.79L198.98-1.79L198.98-1.79Q194.30 1.22 186.14 1.22L186.14 1.22L186.14 1.22Q177.98 1.22 173.54-3.04L173.54-3.04L173.54-3.04Q169.09-7.30 169.09-14.85L169.09-14.85L169.09-14.85Q169.09-25.54 174.66-33.66L174.66-33.66L174.66-33.66Q178.88-39.68 186.43-42.24L186.43-42.24L186.43-42.24Q190.34-43.52 194.18-43.52L194.18-43.52L194.18-43.52Q198.02-43.52 200.38-43.01L200.38-43.01L200.38-43.01Q202.75-42.50 204.54-41.47L204.54-41.47L204.54-41.47Q208.45-39.23 208.45-35.65L208.45-35.65L208.45-35.65Q208.45-32.38 205.38-29.95L205.38-29.95L205.38-29.95Q202.56-27.78 200.26-27.78L200.26-27.78L200.26-27.78Q197.95-27.78 196.99-28.10L196.99-28.10L196.99-28.10Q197.25-30.40 197.25-31.90L197.25-31.90L197.25-31.90Q197.25-33.41 197.18-34.50L197.18-34.50L197.18-34.50Q197.12-35.58 196.80-36.61L196.80-36.61L196.80-36.61Q196.16-38.98 194.21-38.98L194.21-38.98L194.21-38.98Q192.26-38.98 190.30-37.15L190.30-37.15L190.30-37.15Q188.35-35.33 186.69-32.26L186.69-32.26L186.69-32.26Q182.91-25.28 182.91-17.02L182.91-17.02L182.91-17.02Q182.91-13.06 185.15-10.78L185.15-10.78L185.15-10.78Q187.39-8.51 192.19-8.51L192.19-8.51L192.19-8.51Q195.78-8.51 199.17-10.88L199.17-10.88L199.17-10.88Q200.64-11.90 201.73-13.25ZM211.49-1.92L211.49-1.92L211.49-1.92Q209.98-3.58 209.31-6.21L209.31-6.21L209.31-6.21Q208.64-8.83 208.64-13.12L208.64-13.12L208.64-13.12Q208.64-17.41 210.11-21.31L210.11-21.31L210.11-21.31Q211.58-25.22 214.27-28.03L214.27-28.03L214.27-28.03Q219.78-33.92 228.86-33.92L228.86-33.92L228.86-33.92Q232.13-33.92 234.50-32.83L234.50-32.83L245.44-33.92L240.70-8.96L240.70-8.96Q240.51-8.19 240.51-6.78L240.51-6.78L240.51-6.78Q240.51-5.38 241.38-4.48L241.38-4.48L241.38-4.48Q242.24-3.58 243.52-3.46L243.52-3.46L243.52-3.46Q242.88-1.28 240.54 0L240.54 0L240.54 0Q238.21 1.28 235.58 1.28L235.58 1.28L235.58 1.28Q232.96 1.28 231.20 0.29L231.20 0.29L231.20 0.29Q229.44-0.70 228.93-2.37L228.93-2.37L228.93-2.37Q227.90-0.77 225.73 0.26L225.73 0.26L225.73 0.26Q223.55 1.28 220.64 1.28L220.64 1.28L220.64 1.28Q217.73 1.28 215.36 0.51L215.36 0.51L215.36 0.51Q212.99-0.26 211.49-1.92ZM224.99-27.90L224.99-27.90L224.99-27.90Q224.26-26.75 223.62-24.80L223.62-24.80L223.62-24.80Q222.98-22.85 221.92-17.63L221.92-17.63L221.92-17.63Q220.86-12.42 220.86-8.70L220.86-8.70L220.86-8.70Q220.86-4.99 221.44-3.90L221.44-3.90L221.44-3.90Q222.02-2.82 223.04-2.82L223.04-2.82L223.04-2.82Q225.09-2.82 226.59-4.77L226.59-4.77L226.59-4.77Q228.10-6.72 228.67-10.18L228.67-10.18L232.06-28.93L232.06-28.93Q230.72-30.08 229.15-30.08L229.15-30.08L229.15-30.08Q227.58-30.08 226.66-29.57L226.66-29.57L226.66-29.57Q225.73-29.06 224.99-27.90ZM275.97 1.28L275.97 1.28L275.97 1.28Q268.22 1.28 268.22-4.74L268.22-4.74L268.22-4.74Q268.29-6.40 268.80-9.22L268.80-9.22L269.95-15.10L269.95-15.10Q271.68-23.42 271.68-25.28L271.68-25.28L271.68-25.28Q271.68-28.99 269.50-28.99L269.50-28.99L269.50-28.99Q265.86-28.99 263.94-19.46L263.94-19.46L260.16 0L247.30 1.28L253.95-32.70L264.45-33.92L263.42-27.65L263.42-27.65Q266.43-33.92 275.65-33.92L275.65-33.92L275.65-33.92Q280.13-33.92 282.02-32.03L282.02-32.03L282.02-32.03Q283.90-30.14 283.90-25.92L283.90-25.92L283.90-25.92Q283.90-21.95 281.86-12.67L281.86-12.67L281.86-12.67Q280.90-8.51 280.90-6.94L280.90-6.94L280.90-6.94Q280.90-5.38 281.76-4.48L281.76-4.48L281.76-4.48Q282.62-3.58 283.90-3.46L283.90-3.46L283.90-3.46Q283.26-1.28 281.06 0L281.06 0L281.06 0Q278.85 1.28 275.97 1.28ZM290.05-6.40L290.05-6.40L290.05-6.40Q290.05-8.13 290.94-12.48L290.94-12.48L294.34-29.76L290.56-29.76L290.82-31.68L290.82-31.68Q298.50-33.98 305.92-39.62L305.92-39.62L308.99-39.62L307.46-32.64L312.45-32.64L311.87-29.76L306.94-29.76L303.68-12.48L303.68-12.48Q302.85-8.51 302.85-7.17L302.85-7.17L302.85-7.17Q302.85-4.10 305.54-3.46L305.54-3.46L305.54-3.46Q304.90-1.28 302.59 0L302.59 0L302.59 0Q300.29 1.28 297.02 1.28L297.02 1.28L297.02 1.28Q293.76 1.28 291.90-0.77L291.90-0.77L291.90-0.77Q290.05-2.82 290.05-6.40ZM332.67-2.69L332.67-2.69L332.67-2.69Q329.60 1.28 321.98 1.28L321.98 1.28L321.98 1.28Q318.02 1.28 315.14-1.12L315.14-1.12L315.14-1.12Q312.26-3.52 312.26-6.98L312.26-6.98L312.26-6.98Q312.26-8.90 312.45-9.86L312.45-9.86L316.74-32.64L329.73-33.92L325.06-9.22L325.06-9.22Q324.80-7.81 324.80-6.98L324.80-6.98L324.80-6.98Q324.80-3.26 327.04-3.26L327.04-3.26L327.04-3.26Q329.54-3.26 331.33-6.66L331.33-6.66L331.33-6.66Q331.90-7.74 332.16-9.15L332.16-9.15L336.70-32.64L349.31-33.92L344.58-8.96L344.58-8.96Q344.38-8 344.38-6.98L344.38-6.98L344.38-6.98Q344.38-5.95 344.96-4.83L344.96-4.83L344.96-4.83Q345.54-3.71 347.39-3.46L347.39-3.46L347.39-3.46Q347.01-1.92 345.66-0.90L345.66-0.90L345.66-0.90Q342.85 1.28 339.81 1.28L339.81 1.28L339.81 1.28Q336.77 1.28 334.98 0.19L334.98 0.19L334.98 0.19Q333.18-0.90 332.67-2.69ZM329.28-39.87L344.38-49.22L344.38-49.22Q346.69-48.32 346.69-44.99L346.69-44.99L346.69-44.99Q346.69-42.18 344.00-40.38L344.00-40.38L344.00-40.38Q341.76-38.85 338.50-38.27L338.50-38.27L330.62-36.80L329.28-39.87Z"></path></g></g><style>text {
  font-size: 64px;
  font-family: Arial Black;
  dominant-baseline: central;
  text-anchor: middle;
}</style></svg>