<svg id="Layer_1" data-name="Layer 1" xmlns="http://www.w3.org/2000/svg" viewBox="0 0 512 512"><defs><style>.cls-1{fill:#231f20;}</style></defs><title>camera-glyph</title><path class="cls-1" d="M492.8,89.6H370.27L350,49A19.2,19.2,0,0,0,332.8,38.4H179.2A19.2,19.2,0,0,0,162,49L141.73,89.6H19.2A19.2,19.2,0,0,0,0,108.8V454.4a19.2,19.2,0,0,0,19.2,19.2H492.8A19.2,19.2,0,0,0,512,454.4V108.8A19.2,19.2,0,0,0,492.8,89.6ZM256,409.6c-74.11,0-134.4-60.29-134.4-134.4S181.89,140.8,256,140.8s134.4,60.29,134.4,134.4S330.11,409.6,256,409.6Z"/><path class="cls-1" d="M256.16,222.53a49.64,49.64,0,0,0-56,9,47.62,47.62,0,0,0,.2,68.68L256,352.82l55.67-52.61.21-.2a47.63,47.63,0,0,0,0-68.46A49.58,49.58,0,0,0,256.16,222.53Zm29,49.89L256,300,226.92,272.5a9.22,9.22,0,0,1,0-13.47,10.83,10.83,0,0,1,7.62-3,11.15,11.15,0,0,1,8,3.37l13.82,12.78L269.82,259a11.15,11.15,0,0,1,15.29,0,9.23,9.23,0,0,1,.06,13.36Z"/></svg>